Coordinates
version=1
nRows=9
nColumns=63
inDegrees=yes

Units are S.I. units (second, meters, Newtons, ...)
If the header above contains a line with 'inDegrees', this indicates whether rotational values are in degrees (yes) or radians (no).

endheader
time	pelvis_tilt	pelvis_list	pelvis_rotation	pelvis_tx	pelvis_ty	pelvis_tz	hip_flexion_r	hip_adduction_r	hip_rotation_r	knee_angle_r	knee_angle_r_beta	ankle_angle_r	subtalar_angle_r	mtp_angle_r	hip_flexion_l	hip_adduction_l	hip_rotation_l	knee_angle_l	knee_angle_l_beta	ankle_angle_l	subtalar_angle_l	mtp_angle_l	L5_S1_Flex_Ext	L5_S1_Lat_Bending	L5_S1_axial_rotation	L4_L5_Flex_Ext	L4_L5_Lat_Bending	L4_L5_axial_rotation	L3_L4_Flex_Ext	L3_L4_Lat_Bending	L3_L4_axial_rotation	L2_L3_Flex_Ext	L2_L3_Lat_Bending	L2_L3_axial_rotation	L1_L2_Flex_Ext	L1_L2_Lat_Bending	L1_L2_axial_rotation	L1_T12_Flex_Ext	L1_T12_Lat_Bending	L1_T12_axial_rotation	Abs_r3	Abs_r2	Abs_r1	Abs_t1	Abs_t2	neck_flexion	neck_bending	neck_rotation	arm_flex_r	arm_add_r	arm_rot_r	elbow_flex_r	pro_sup_r	wrist_flex_r	wrist_dev_r	arm_flex_l	arm_add_l	arm_rot_l	elbow_flex_l	pro_sup_l	wrist_flex_l	wrist_dev_l
5.589286	5.125300	-3.030624	100.677025	0.094700	1.075956	0.055815	18.344789	-1.508074	-6.464258	37.561429	0.655571	46.376942	-2.039466	0.000000	20.784631	1.978894	10.274272	39.377648	0.687270	45.755740	-7.453910	0.000000	-0.426215	0.631600	-1.669575	-0.791523	0.840028	-1.773923	-0.700228	1.535672	-1.773923	-0.487121	1.535672	-1.460878	-0.395783	1.287958	-1.356529	-0.243539	0.978348	-1.252181	-3.044409	7.144784	-9.285673	0.000000	0.000000	9.993064	-5.282161	2.028495	758.100115	-15.510751	838.266534	0.234288	4.815308	-51.280426	5.154387	28.801828	-7.542598	110.082983	0.242369	1.042594	-53.902845	-20.010444
5.607143	5.067355	-1.677228	100.721204	0.094926	1.084995	0.060213	15.926293	-0.916283	-6.025589	34.841917	0.608106	44.439866	-3.051866	0.000000	18.480118	1.611626	10.336251	37.109353	0.647680	43.953799	-7.825060	0.000000	-0.507622	0.621163	-1.619330	-0.942705	0.826147	-1.720538	-0.833972	1.510296	-1.720538	-0.580161	1.510296	-1.416914	-0.471378	1.266676	-1.315706	-0.290055	0.962182	-1.214498	-3.625893	7.026722	-9.006229	0.000000	0.000000	7.836183	-4.847882	1.271320	762.732807	-16.914030	842.949416	0.179525	7.218782	-57.079338	10.270082	33.141326	-8.690903	112.556959	0.212642	1.016675	-58.961353	-20.099518
5.625000	5.026491	-0.176946	100.733988	0.095145	1.093691	0.065229	13.397761	-0.283669	-5.531121	32.137003	0.560897	42.436032	-4.166709	0.000000	16.064857	1.208151	10.413713	34.866097	0.608528	42.198699	-8.267512	0.000000	-0.612648	0.615046	-1.546773	-1.137749	0.818012	-1.643446	-1.006520	1.495424	-1.643446	-0.700196	1.495424	-1.353426	-0.568905	1.254203	-1.256753	-0.350067	0.952707	-1.160079	-4.376086	6.957528	-8.602685	0.000000	0.000000	5.803850	-4.324415	0.448521	767.988345	-18.551837	847.747808	0.124215	9.780793	-62.239896	15.315552	38.192448	-9.849185	115.556356	0.181550	0.989504	-63.413944	-20.327134
5.642857	5.029561	1.457067	100.719277	0.095321	1.101667	0.070662	10.803010	0.399856	-4.994066	29.525695	0.515321	40.436630	-5.345497	0.000000	13.598243	0.764129	10.552730	32.740905	0.571437	40.566386	-8.803466	0.000000	-0.743458	0.617126	-1.466266	-1.380676	0.820778	-1.557907	-1.221427	1.500480	-1.557907	-0.849698	1.500480	-1.282982	-0.690375	1.258443	-1.191341	-0.424812	0.955928	-1.099699	-5.310445	6.981053	-8.154929	0.000000	0.000000	4.037886	-3.761563	-0.366281	773.715271	-20.380894	852.409102	0.085701	12.446582	-66.605068	20.165631	43.877367	-11.023389	119.153592	0.148331	0.955435	-67.151993	-20.688635
5.660714	5.161287	3.179729	100.662599	0.095167	1.108512	0.076304	8.223596	1.175622	-4.472385	27.097466	0.472940	38.473234	-6.504134	0.000000	11.181954	0.231319	10.801243	30.843139	0.538314	39.160326	-9.437078	0.000000	-0.894265	0.641147	-1.369389	-1.660739	0.852725	-1.454976	-1.469188	1.558884	-1.454976	-1.022055	1.558884	-1.198215	-0.830414	1.307426	-1.112628	-0.510983	0.993136	-1.027042	-6.387644	7.252778	-7.616129	0.000000	0.000000	2.654689	-3.184030	-1.166683	779.900624	-22.443987	857.058739	0.056337	15.120750	-69.942820	24.636381	50.079090	-12.114861	123.129906	0.115025	0.916008	-69.971728	-21.149151
5.678571	5.615203	4.971773	100.528121	0.094287	1.113972	0.081971	5.679293	2.168481	-4.044969	24.898644	0.434563	36.556007	-7.487817	0.000000	8.883582	-0.525311	11.213659	29.294598	0.511287	38.085342	-10.179774	0.000000	-1.059157	0.718417	-1.198598	-1.966961	0.955495	-1.273510	-1.740089	1.746759	-1.273510	-1.210511	1.746759	-1.048773	-0.983533	1.464996	-0.973861	-0.605202	1.112828	-0.898948	-7.565453	8.126878	-6.666241	0.000000	0.000000	1.872675	-2.907687	-2.195028	787.070985	-24.721365	862.499716	0.044904	17.603094	-72.243082	28.603752	56.692669	-12.786880	127.076560	0.085605	0.878698	-71.985108	-21.676944
5.696429	6.402451	6.778785	100.230099	0.092725	1.117998	0.087346	3.206244	3.367305	-3.634412	22.977589	0.401035	34.718612	-8.255345	0.000000	6.708038	-1.513270	11.699262	28.088668	0.490240	37.376718	-11.011296	0.000000	-1.229392	0.852757	-0.899033	-2.283105	1.134167	-0.955223	-2.019769	2.073393	-0.955223	-1.405073	2.073393	-0.786654	-1.141614	1.738942	-0.730464	-0.702475	1.320920	-0.674275	-8.781427	9.646557	-5.000153	0.000000	0.000000	1.738329	-3.109832	-3.653837	795.479533	-27.048884	869.230437	0.041409	19.805762	-73.378102	31.918347	63.599078	-12.848727	130.549669	0.062754	0.843384	-73.000516	-22.258603
5.714286	7.464143	8.568636	99.643229	0.090808	1.120732	0.092026	0.795638	4.685929	-3.079115	21.365582	0.372900	33.019403	-8.838718	0.000000	4.551340	-2.659703	12.076926	27.097208	0.472935	37.010391	-11.889283	0.000000	-1.404555	1.033477	-0.450190	-2.608400	1.374525	-0.478327	-2.307544	2.512797	-0.478327	-1.605266	2.512797	-0.393916	-1.304270	2.107467	-0.365779	-0.802563	1.600856	-0.337642	-10.032599	11.690902	-2.503821	0.000000	0.000000	2.159183	-3.796977	-5.563371	804.940044	-29.270049	877.113466	0.041946	21.617631	-73.381745	34.448611	70.616434	-12.286985	133.193563	0.049774	0.811988	-72.973714	-22.913634
5.732143	8.698418	10.237591	98.948613	0.088599	1.122144	0.095776	-1.437673	6.078135	-2.589092	20.037294	0.349717	31.541841	-9.147193	0.000000	2.614334	-3.917775	12.518337	26.418430	0.461089	37.026140	-12.779808	0.000000	-1.564983	1.247010	0.098585	-2.906330	1.658523	0.104747	-2.571110	3.031980	0.104747	-1.788619	3.031980	0.086262	-1.453243	2.542903	0.080101	-0.894231	1.931618	0.073939	-11.178516	14.106425	0.548302	0.000000	0.000000	3.086983	-4.896107	-7.710427	815.097921	-31.237953	885.725219	0.045177	23.005739	-72.382755	36.065545	77.551118	-11.192540	134.800924	0.047337	0.786005	-71.994182	-23.662882
